STARTFONT 2.1
COMMENT CDC 6612 console font
COMMENT   
FONT -AK Design-Seymour-Medium-R-Normal-Sans-8-80-100-100-M-80-CDC6000-1
SIZE 8 100 100
FONTBOUNDINGBOX 8 8 -1 -1
STARTPROPERTIES 25
FONTNAME_REGISTRY ""
FOUNDRY "AK Design"
FAMILY_NAME "Seymour"
WEIGHT_NAME "Medium"
SLANT "R"
SETWIDTH_NAME "Normal"
ADD_STYLE_NAME "Sans"
PIXEL_SIZE 8
POINT_SIZE 80
RESOLUTION_X 100
RESOLUTION_Y 100
SPACING "M"
AVERAGE_WIDTH 80
CHARSET_REGISTRY "CDC6000"
CHARSET_ENCODING "1"
COPYRIGHT "Copyright Paul Koning, 2003."
FACE_NAME "Seymour"
X_HEIGHT 7
CAP_HEIGHT 7
WEIGHT 10
RESOLUTION 100
QUAD_WIDTH 8
FONT_ASCENT 7
FONT_DESCENT 1
_XMBDFED_INFO "Edited with xmbdfed 4.5."
ENDPROPERTIES
CHARS 64
STARTCHAR char00
ENCODING 0
SWIDTH 720 0
DWIDTH 8 0
BBX 0 0 0 0
BITMAP
ENDCHAR
STARTCHAR char65
ENCODING 1
SWIDTH 720 0
DWIDTH 8 0
BBX 6 7 0 0
BITMAP
30
48
48
78
84
84
84
ENDCHAR
STARTCHAR char66
ENCODING 2
SWIDTH 720 0
DWIDTH 8 0
BBX 6 7 0 0
BITMAP
F8
84
84
F8
84
84
F8
ENDCHAR
STARTCHAR char67
ENCODING 3
SWIDTH 720 0
DWIDTH 8 0
BBX 6 7 0 0
BITMAP
30
48
84
80
80
44
38
ENDCHAR
STARTCHAR char68
ENCODING 4
SWIDTH 720 0
DWIDTH 8 0
BBX 6 7 0 0
BITMAP
F8
84
84
84
84
88
F0
ENDCHAR
STARTCHAR char69
ENCODING 5
SWIDTH 720 0
DWIDTH 8 0
BBX 6 7 0 0
BITMAP
FC
80
80
F0
80
80
FC
ENDCHAR
STARTCHAR char70
ENCODING 6
SWIDTH 720 0
DWIDTH 8 0
BBX 6 7 0 0
BITMAP
FC
80
80
F0
80
80
80
ENDCHAR
STARTCHAR char71
ENCODING 7
SWIDTH 720 0
DWIDTH 8 0
BBX 6 7 0 0
BITMAP
30
48
84
90
88
44
38
ENDCHAR
STARTCHAR char72
ENCODING 8
SWIDTH 720 0
DWIDTH 8 0
BBX 6 7 0 0
BITMAP
84
84
84
FC
84
84
84
ENDCHAR
STARTCHAR char73
ENCODING 9
SWIDTH 720 0
DWIDTH 8 0
BBX 1 7 2 0
BITMAP
80
80
80
80
80
80
80
ENDCHAR
STARTCHAR char74
ENCODING 10
SWIDTH 720 0
DWIDTH 8 0
BBX 5 7 0 0
BITMAP
08
08
08
08
88
48
30
ENDCHAR
STARTCHAR char75
ENCODING 11
SWIDTH 720 0
DWIDTH 8 0
BBX 5 7 0 0
BITMAP
88
90
A0
C0
A0
90
88
ENDCHAR
STARTCHAR char76
ENCODING 12
SWIDTH 720 0
DWIDTH 8 0
BBX 6 7 0 0
BITMAP
80
80
80
80
80
80
FC
ENDCHAR
STARTCHAR char77
ENCODING 13
SWIDTH 720 0
DWIDTH 8 0
BBX 6 7 0 0
BITMAP
84
CC
AC
94
84
84
84
ENDCHAR
STARTCHAR char78
ENCODING 14
SWIDTH 720 0
DWIDTH 8 0
BBX 6 7 0 0
BITMAP
84
C4
A4
94
8C
84
84
ENDCHAR
STARTCHAR char79
ENCODING 15
SWIDTH 720 0
DWIDTH 8 0
BBX 6 7 0 0
BITMAP
18
24
44
84
84
88
70
ENDCHAR
STARTCHAR char80
ENCODING 16
SWIDTH 720 0
DWIDTH 8 0
BBX 6 7 0 0
BITMAP
F8
84
98
E0
80
80
80
ENDCHAR
STARTCHAR char81
ENCODING 17
SWIDTH 720 0
DWIDTH 8 0
BBX 6 7 0 0
BITMAP
18
24
44
84
94
88
74
ENDCHAR
STARTCHAR char82
ENCODING 18
SWIDTH 720 0
DWIDTH 8 0
BBX 6 7 0 0
BITMAP
F8
84
98
E0
90
88
84
ENDCHAR
STARTCHAR char83
ENCODING 19
SWIDTH 720 0
DWIDTH 8 0
BBX 6 7 0 0
BITMAP
78
84
80
60
18
04
F8
ENDCHAR
STARTCHAR char84
ENCODING 20
SWIDTH 720 0
DWIDTH 8 0
BBX 6 7 0 0
BITMAP
FC
10
10
10
10
10
10
ENDCHAR
STARTCHAR char85
ENCODING 21
SWIDTH 720 0
DWIDTH 8 0
BBX 6 7 0 0
BITMAP
84
84
84
84
84
44
38
ENDCHAR
STARTCHAR char86
ENCODING 22
SWIDTH 720 0
DWIDTH 8 0
BBX 6 7 0 0
BITMAP
84
84
84
48
48
30
30
ENDCHAR
STARTCHAR char87
ENCODING 23
SWIDTH 720 0
DWIDTH 8 0
BBX 6 7 0 0
BITMAP
84
84
84
94
AC
CC
84
ENDCHAR
STARTCHAR char88
ENCODING 24
SWIDTH 720 0
DWIDTH 8 0
BBX 6 7 0 0
BITMAP
84
84
48
30
48
84
84
ENDCHAR
STARTCHAR char89
ENCODING 25
SWIDTH 720 0
DWIDTH 8 0
BBX 6 7 0 0
BITMAP
84
44
28
10
10
10
10
ENDCHAR
STARTCHAR char90
ENCODING 26
SWIDTH 720 0
DWIDTH 8 0
BBX 6 7 0 0
BITMAP
FC
08
10
20
40
80
FC
ENDCHAR
STARTCHAR char48
ENCODING 27
SWIDTH 720 0
DWIDTH 8 0
BBX 6 7 0 0
BITMAP
78
84
84
84
84
84
78
ENDCHAR
STARTCHAR char49
ENCODING 28
SWIDTH 720 0
DWIDTH 8 0
BBX 2 7 1 0
BITMAP
40
C0
40
40
40
40
40
ENDCHAR
STARTCHAR char50
ENCODING 29
SWIDTH 720 0
DWIDTH 8 0
BBX 6 7 0 0
BITMAP
38
C4
04
18
60
80
FC
ENDCHAR
STARTCHAR char51
ENCODING 30
SWIDTH 720 0
DWIDTH 8 0
BBX 6 7 0 0
BITMAP
78
84
04
18
04
84
78
ENDCHAR
STARTCHAR char52
ENCODING 31
SWIDTH 720 0
DWIDTH 8 0
BBX 6 7 0 0
BITMAP
10
30
50
90
FC
10
10
ENDCHAR
STARTCHAR char53
ENCODING 32
SWIDTH 720 0
DWIDTH 8 0
BBX 6 7 0 0
BITMAP
FC
80
F0
08
04
84
78
ENDCHAR
STARTCHAR char54
ENCODING 33
SWIDTH 720 0
DWIDTH 8 0
BBX 6 7 0 0
BITMAP
38
44
80
F8
84
84
78
ENDCHAR
STARTCHAR char55
ENCODING 34
SWIDTH 720 0
DWIDTH 8 0
BBX 6 7 0 0
BITMAP
FC
08
10
20
20
40
80
ENDCHAR
STARTCHAR char56
ENCODING 35
SWIDTH 720 0
DWIDTH 8 0
BBX 6 7 0 0
BITMAP
78
84
84
78
84
84
78
ENDCHAR
STARTCHAR char57
ENCODING 36
SWIDTH 720 0
DWIDTH 8 0
BBX 6 7 0 0
BITMAP
78
84
84
7C
04
88
70
ENDCHAR
STARTCHAR char43
ENCODING 37
SWIDTH 720 0
DWIDTH 8 0
BBX 6 7 0 0
BITMAP
10
10
10
FC
10
10
10
ENDCHAR
STARTCHAR char45
ENCODING 38
SWIDTH 720 0
DWIDTH 8 0
BBX 6 1 0 3
BITMAP
FC
ENDCHAR
STARTCHAR char42
ENCODING 39
SWIDTH 720 0
DWIDTH 8 0
BBX 5 5 0 1
BITMAP
50
20
F8
20
50
ENDCHAR
STARTCHAR char47
ENCODING 40
SWIDTH 720 0
DWIDTH 8 0
BBX 6 7 0 0
BITMAP
04
08
10
20
20
40
80
ENDCHAR
STARTCHAR char40
ENCODING 41
SWIDTH 720 0
DWIDTH 8 0
BBX 2 7 1 0
BITMAP
40
80
80
80
80
80
40
ENDCHAR
STARTCHAR char41
ENCODING 42
SWIDTH 720 0
DWIDTH 8 0
BBX 2 7 2 0
BITMAP
80
40
40
40
40
40
80
ENDCHAR
STARTCHAR char36
ENCODING 43
SWIDTH 720 0
DWIDTH 8 0
BBX 0 0 0 0
BITMAP
ENDCHAR
STARTCHAR char61
ENCODING 44
SWIDTH 720 0
DWIDTH 8 0
BBX 6 3 0 2
BITMAP
FC
00
FC
ENDCHAR
STARTCHAR char32
ENCODING 45
SWIDTH 720 0
DWIDTH 8 0
BBX 0 0 0 0
BITMAP
ENDCHAR
STARTCHAR char44
ENCODING 46
SWIDTH 720 0
DWIDTH 8 0
BBX 2 4 2 -1
BITMAP
C0
C0
40
80
ENDCHAR
STARTCHAR char46
ENCODING 47
SWIDTH 720 0
DWIDTH 8 0
BBX 2 2 1 0
BITMAP
C0
C0
ENDCHAR
STARTCHAR char00
ENCODING 48
SWIDTH 720 0
DWIDTH 8 0
BBX 0 0 0 0
BITMAP
ENDCHAR
STARTCHAR char00
ENCODING 49
SWIDTH 720 0
DWIDTH 8 0
BBX 0 0 0 0
BITMAP
ENDCHAR
STARTCHAR char00
ENCODING 50
SWIDTH 720 0
DWIDTH 8 0
BBX 0 0 0 0
BITMAP
ENDCHAR
STARTCHAR char00
ENCODING 51
SWIDTH 720 0
DWIDTH 8 0
BBX 0 0 0 0
BITMAP
ENDCHAR
STARTCHAR char00
ENCODING 52
SWIDTH 720 0
DWIDTH 8 0
BBX 0 0 0 0
BITMAP
ENDCHAR
STARTCHAR char00
ENCODING 53
SWIDTH 720 0
DWIDTH 8 0
BBX 0 0 0 0
BITMAP
ENDCHAR
STARTCHAR char00
ENCODING 54
SWIDTH 720 0
DWIDTH 8 0
BBX 0 0 0 0
BITMAP
ENDCHAR
STARTCHAR char00
ENCODING 55
SWIDTH 720 0
DWIDTH 8 0
BBX 0 0 0 0
BITMAP
ENDCHAR
STARTCHAR char00
ENCODING 56
SWIDTH 720 0
DWIDTH 8 0
BBX 0 0 0 0
BITMAP
ENDCHAR
STARTCHAR char00
ENCODING 57
SWIDTH 720 0
DWIDTH 8 0
BBX 0 0 0 0
BITMAP
ENDCHAR
STARTCHAR char00
ENCODING 58
SWIDTH 720 0
DWIDTH 8 0
BBX 0 0 0 0
BITMAP
ENDCHAR
STARTCHAR char00
ENCODING 59
SWIDTH 720 0
DWIDTH 8 0
BBX 0 0 0 0
BITMAP
ENDCHAR
STARTCHAR char00
ENCODING 60
SWIDTH 720 0
DWIDTH 8 0
BBX 0 0 0 0
BITMAP
ENDCHAR
STARTCHAR char00
ENCODING 61
SWIDTH 720 0
DWIDTH 8 0
BBX 0 0 0 0
BITMAP
ENDCHAR
STARTCHAR char00
ENCODING 62
SWIDTH 720 0
DWIDTH 8 0
BBX 0 0 0 0
BITMAP
ENDCHAR
STARTCHAR char00
ENCODING 63
SWIDTH 720 0
DWIDTH 8 0
BBX 0 0 0 0
BITMAP
ENDCHAR
ENDFONT
